<svg xmlns="http://www.w3.org/2000/svg" viewBox="0 0 1643 453" role="img" aria-label="Roventra"><path d="M55,54 L194,54 L194,55 L210,55 L210,56 L217,56 L217,57 L222,57 L222,58 L227,58 L227,59 L231,59 L231,60 L234,60 L234,61 L237,61 L237,62 L240,62 L240,63 L243,63 L243,64 L245,64 L245,65 L248,65 L248,66 L250,66 L250,67 L252,67 L252,68 L254,68 L254,69 L256,69 L256,70 L258,70 L258,71 L260,71 L260,72 L262,72 L262,73 L263,73 L263,74 L265,74 L265,75 L267,75 L267,76 L268,76 L268,77 L269,77 L269,78 L271,78 L271,79 L272,79 L272,80 L273,80 L273,81 L275,81 L275,82 L276,82 L276,83 L277,83 L277,84 L278,84 L278,85 L279,85 L279,86 L280,86 L280,87 L281,87 L281,88 L282,88 L282,89 L283,89 L283,90 L284,90 L284,91 L285,91 L285,92 L286,92 L286,93 L287,93 L287,94 L288,94 L288,95 L289,95 L289,96 L290,96 L290,98 L291,98 L291,99 L292,99 L292,100 L293,100 L293,102 L294,102 L294,103 L295,103 L295,104 L296,104 L296,106 L297,106 L297,107 L298,107 L298,109 L299,109 L299,111 L300,111 L300,113 L301,113 L301,115 L302,115 L302,116 L303,116 L303,118 L304,118 L304,120 L305,120 L305,123 L306,123 L306,125 L307,125 L307,128 L308,128 L308,131 L309,131 L309,135 L310,135 L310,139 L311,139 L311,143 L312,143 L312,148 L313,148 L313,160 L314,160 L314,164 L313,164 L313,176 L312,176 L312,182 L311,182 L311,186 L310,186 L310,190 L309,190 L309,193 L308,193 L308,196 L307,196 L307,199 L306,199 L306,202 L305,202 L305,203 L304,203 L304,205 L303,205 L303,207 L302,207 L302,209 L301,209 L301,211 L300,211 L300,213 L299,213 L299,214 L298,214 L298,216 L297,216 L297,218 L296,218 L296,219 L295,219 L295,220 L294,220 L294,221 L293,221 L293,223 L292,223 L292,224 L291,224 L291,225 L290,225 L290,226 L289,226 L289,227 L288,227 L288,228 L287,228 L287,229 L286,229 L286,230 L285,230 L285,231 L284,231 L284,232 L283,232 L283,233 L282,233 L282,234 L281,234 L281,235 L280,235 L280,236 L279,236 L279,237 L278,237 L278,238 L276,238 L276,239 L275,239 L275,240 L274,240 L274,241 L273,241 L273,242 L272,242 L272,243 L270,243 L270,244 L268,244 L268,245 L267,245 L267,246 L265,246 L265,247 L263,247 L263,248 L262,248 L262,249 L260,249 L260,250 L258,250 L258,251 L256,251 L256,252 L254,252 L254,253 L252,253 L252,254 L250,254 L250,255 L249,255 L249,256 L250,256 L250,258 L251,258 L251,259 L252,259 L252,260 L253,260 L253,261 L254,261 L254,262 L255,262 L255,263 L256,263 L256,265 L257,265 L257,266 L258,266 L258,267 L259,267 L259,268 L260,268 L260,270 L261,270 L261,271 L262,271 L262,272 L263,272 L263,273 L264,273 L264,274 L265,274 L265,275 L266,275 L266,276 L267,276 L267,278 L268,278 L268,279 L269,279 L269,280 L270,280 L270,281 L271,281 L271,282 L272,282 L272,284 L273,284 L273,285 L274,285 L274,286 L275,286 L275,287 L276,287 L276,288 L277,288 L277,290 L278,290 L278,291 L279,291 L279,292 L280,292 L280,293 L281,293 L281,294 L282,294 L282,296 L283,296 L283,297 L284,297 L284,298 L285,298 L285,300 L286,300 L286,301 L287,301 L287,302 L288,302 L288,303 L289,303 L289,304 L290,304 L290,305 L291,305 L291,307 L292,307 L292,308 L293,308 L293,309 L294,309 L294,310 L295,310 L295,311 L296,311 L296,313 L297,313 L297,314 L298,314 L298,315 L299,315 L299,316 L300,316 L300,318 L301,318 L301,319 L302,319 L302,320 L303,320 L303,321 L304,321 L304,322 L305,322 L305,324 L306,324 L306,325 L307,325 L307,326 L308,326 L308,327 L309,327 L309,329 L310,329 L310,330 L311,330 L311,331 L312,331 L312,332 L313,332 L313,333 L314,333 L314,334 L315,334 L315,336 L316,336 L316,337 L317,337 L317,338 L318,338 L318,340 L319,340 L319,341 L320,341 L320,342 L321,342 L321,343 L322,343 L322,344 L323,344 L323,346 L324,346 L324,347 L325,347 L325,348 L326,348 L326,349 L327,349 L327,351 L328,351 L328,352 L329,352 L329,353 L330,353 L330,354 L331,354 L331,355 L332,355 L332,357 L333,357 L333,358 L334,358 L334,359 L335,359 L335,360 L336,360 L336,362 L337,362 L337,363 L338,363 L338,364 L339,364 L339,365 L340,365 L340,367 L341,367 L341,368 L342,368 L342,369 L343,369 L343,370 L344,370 L344,371 L345,371 L345,373 L346,373 L346,374 L347,374 L347,375 L348,375 L348,376 L349,376 L349,378 L350,378 L350,379 L351,379 L351,380 L352,380 L352,381 L353,381 L353,382 L354,382 L354,383 L355,383 L355,385 L356,385 L356,386 L357,386 L357,387 L358,387 L358,388 L359,388 L359,390 L360,390 L360,391 L361,391 L361,392 L362,392 L362,393 L363,393 L363,395 L364,395 L364,396 L365,396 L365,399 L359,399 L359,398 L355,398 L355,399 L352,399 L352,398 L351,398 L351,399 L350,399 L350,398 L285,398 L285,399 L281,399 L281,398 L279,398 L279,397 L278,397 L278,395 L277,395 L277,394 L276,394 L276,393 L275,393 L275,391 L274,391 L274,390 L273,390 L273,389 L272,389 L272,388 L271,388 L271,387 L270,387 L270,385 L269,385 L269,384 L268,384 L268,383 L267,383 L267,381 L266,381 L266,380 L265,380 L265,379 L264,379 L264,377 L263,377 L263,376 L262,376 L262,375 L261,375 L261,374 L260,374 L260,373 L259,373 L259,371 L258,371 L258,370 L257,370 L257,368 L256,368 L256,367 L255,367 L255,366 L254,366 L254,365 L253,365 L253,363 L252,363 L252,362 L251,362 L251,361 L250,361 L250,359 L249,359 L249,358 L248,358 L248,357 L247,357 L247,356 L246,356 L246,354 L245,354 L245,353 L244,353 L244,352 L243,352 L243,350 L242,350 L242,349 L241,349 L241,348 L240,348 L240,347 L239,347 L239,345 L238,345 L238,344 L237,344 L237,343 L236,343 L236,342 L235,342 L235,340 L234,340 L234,339 L233,339 L233,337 L232,337 L232,336 L231,336 L231,335 L230,335 L230,334 L229,334 L229,333 L228,333 L228,332 L227,332 L227,330 L226,330 L226,329 L225,329 L225,328 L224,328 L224,326 L223,326 L223,325 L222,325 L222,324 L221,324 L221,323 L220,323 L220,321 L219,321 L219,320 L218,320 L218,319 L217,319 L217,317 L216,317 L216,316 L215,316 L215,315 L214,315 L214,314 L213,314 L213,313 L212,313 L212,311 L211,311 L211,310 L210,310 L210,309 L209,309 L209,307 L208,307 L208,305 L209,305 L209,299 L210,299 L210,282 L211,282 L211,281 L210,281 L210,268 L209,268 L209,262 L208,262 L208,259 L207,259 L207,257 L206,257 L206,254 L205,254 L205,251 L204,251 L204,249 L203,249 L203,247 L202,247 L202,245 L201,245 L201,243 L200,243 L200,241 L199,241 L199,239 L198,239 L198,237 L197,237 L197,235 L196,235 L196,233 L195,233 L195,230 L194,230 L194,225 L193,225 L193,216 L194,216 L194,212 L195,212 L195,210 L196,210 L196,209 L197,209 L197,208 L198,208 L198,207 L200,207 L200,206 L202,206 L202,205 L212,205 L212,204 L220,204 L220,203 L224,203 L224,202 L228,202 L228,201 L231,201 L231,200 L233,200 L233,199 L234,199 L234,198 L236,198 L236,197 L237,197 L237,196 L238,196 L238,195 L239,195 L239,194 L240,194 L240,193 L241,193 L241,191 L242,191 L242,190 L243,190 L243,188 L244,188 L244,186 L245,186 L245,183 L246,183 L246,180 L247,180 L247,177 L248,177 L248,171 L249,171 L249,161 L248,161 L248,159 L247,159 L247,158 L245,158 L245,157 L241,157 L241,156 L237,156 L237,155 L233,155 L233,154 L229,154 L229,153 L225,153 L225,152 L219,152 L219,151 L215,151 L215,150 L211,150 L211,149 L207,149 L207,148 L204,148 L204,147 L202,147 L202,146 L201,146 L201,145 L200,145 L200,143 L199,143 L199,141 L198,141 L198,140 L197,140 L197,138 L196,138 L196,136 L195,136 L195,135 L194,135 L194,134 L193,134 L193,133 L192,133 L192,132 L191,132 L191,131 L190,131 L190,130 L188,130 L188,129 L187,129 L187,128 L185,128 L185,127 L182,127 L182,126 L179,126 L179,125 L174,125 L174,124 L154,124 L154,115 L153,115 L153,103 L152,103 L152,99 L151,99 L151,97 L150,97 L150,96 L148,96 L148,97 L147,97 L147,98 L146,98 L146,100 L145,100 L145,102 L144,102 L144,103 L143,103 L143,105 L142,105 L142,106 L141,106 L141,108 L140,108 L140,110 L139,110 L139,112 L138,112 L138,114 L137,114 L137,117 L136,117 L136,119 L135,119 L135,121 L134,121 L134,124 L133,124 L133,127 L132,127 L132,130 L131,130 L131,134 L130,134 L130,138 L129,138 L129,144 L128,144 L128,147 L127,147 L127,149 L126,149 L126,150 L125,150 L125,152 L124,152 L124,153 L123,153 L123,155 L122,155 L122,157 L121,157 L121,158 L120,158 L120,160 L119,160 L119,162 L118,162 L118,163 L117,163 L117,165 L116,165 L116,167 L115,167 L115,169 L114,169 L114,171 L113,171 L113,173 L112,173 L112,175 L111,175 L111,177 L110,177 L110,179 L109,179 L109,182 L108,182 L108,184 L107,184 L107,187 L106,187 L106,189 L105,189 L105,193 L104,193 L104,195 L103,195 L103,199 L102,199 L102,202 L101,202 L101,206 L100,206 L100,211 L99,211 L99,217 L98,217 L98,227 L97,227 L97,274 L98,274 L98,272 L99,272 L99,270 L100,270 L100,267 L101,267 L101,265 L102,265 L102,262 L103,262 L103,260 L104,260 L104,257 L105,257 L105,254 L106,254 L106,252 L107,252 L107,249 L108,249 L108,247 L109,247 L109,245 L110,245 L110,242 L111,242 L111,240 L112,240 L112,239 L113,239 L113,237 L114,237 L114,236 L115,236 L115,234 L116,234 L116,233 L117,233 L117,231 L118,231 L118,230 L119,230 L119,229 L120,229 L120,228 L121,228 L121,227 L122,227 L122,226 L123,226 L123,225 L124,225 L124,224 L125,224 L125,223 L126,223 L126,222 L128,222 L128,221 L129,221 L129,220 L131,220 L131,219 L133,219 L133,218 L135,218 L135,217 L136,217 L136,216 L137,216 L137,215 L138,215 L138,213 L139,213 L139,212 L140,212 L140,211 L141,211 L141,209 L142,209 L142,208 L143,208 L143,207 L144,207 L144,206 L145,206 L145,205 L146,205 L146,204 L147,204 L147,203 L148,203 L148,202 L149,202 L149,201 L150,201 L150,200 L151,200 L151,199 L152,199 L152,198 L154,198 L154,197 L155,197 L155,196 L157,196 L157,195 L159,195 L159,194 L163,194 L163,195 L164,195 L164,214 L163,214 L163,220 L164,220 L164,221 L167,221 L167,222 L169,222 L169,223 L171,223 L171,224 L173,224 L173,225 L174,225 L174,226 L175,226 L175,227 L177,227 L177,228 L178,228 L178,229 L179,229 L179,230 L180,230 L180,231 L181,231 L181,233 L182,233 L182,234 L183,234 L183,236 L184,236 L184,238 L185,238 L185,243 L186,243 L186,249 L187,249 L187,251 L188,251 L188,252 L189,252 L189,254 L190,254 L190,255 L191,255 L191,256 L192,256 L192,257 L193,257 L193,258 L195,258 L195,260 L196,260 L196,261 L197,261 L197,268 L196,268 L196,271 L195,271 L195,273 L194,273 L194,275 L193,275 L193,277 L192,277 L192,279 L191,279 L191,280 L190,280 L190,282 L189,282 L189,283 L188,283 L188,284 L186,284 L186,285 L185,285 L185,286 L183,286 L183,287 L180,287 L180,288 L175,288 L175,289 L167,289 L167,290 L165,290 L165,291 L164,291 L164,292 L162,292 L162,294 L161,294 L161,309 L162,309 L162,313 L163,313 L163,317 L164,317 L164,323 L165,323 L165,336 L164,336 L164,342 L163,342 L163,346 L162,346 L162,349 L161,349 L161,352 L160,352 L160,354 L159,354 L159,356 L158,356 L158,357 L157,357 L157,359 L156,359 L156,361 L155,361 L155,363 L154,363 L154,364 L153,364 L153,366 L152,366 L152,368 L151,368 L151,369 L150,369 L150,371 L149,371 L149,373 L148,373 L148,374 L147,374 L147,376 L146,376 L146,378 L145,378 L145,380 L144,380 L144,382 L143,382 L143,384 L142,384 L142,386 L141,386 L141,388 L140,388 L140,390 L139,390 L139,392 L138,392 L138,394 L137,394 L137,397 L136,397 L136,398 L134,398 L134,399 L133,399 L133,398 L61,398 L61,399 L55,399 L55,398 L54,398 L54,55 L55,55Z" fill="#071a35" fill-rule="evenodd"/><path d="M54,54 L55,54 L55,55 L54,55ZM194,54 L196,54 L196,55 L194,55ZM210,55 L211,55 L211,56 L210,56ZM234,60 L235,60 L235,61 L234,61ZM245,64 L246,64 L246,65 L245,65ZM250,66 L251,66 L251,67 L250,67ZM148,96 L150,96 L150,97 L148,97ZM151,99 L152,99 L152,100 L151,100ZM152,103 L153,103 L153,104 L152,104ZM300,112 L301,112 L301,113 L300,113ZM301,114 L302,114 L302,115 L301,115ZM153,115 L154,115 L154,116 L153,116ZM134,121 L135,121 L135,122 L134,122ZM305,122 L306,122 L306,123 L305,123ZM155,124 L156,124 L156,125 L155,125ZM178,125 L179,125 L179,126 L178,126ZM184,127 L185,127 L185,128 L184,128ZM186,128 L187,128 L187,129 L186,129ZM131,130 L132,130 L132,131 L131,131ZM189,130 L190,130 L190,131 L189,131ZM309,134 L310,134 L310,135 L309,135ZM1179,134 L1222,134 L1222,186 L1273,186 L1273,223 L1222,223 L1222,307 L1223,307 L1223,311 L1224,311 L1224,314 L1225,314 L1225,317 L1226,317 L1226,318 L1227,318 L1227,320 L1228,320 L1228,321 L1229,321 L1229,323 L1230,323 L1230,324 L1232,324 L1232,325 L1233,325 L1233,326 L1234,326 L1234,327 L1236,327 L1236,328 L1238,328 L1238,329 L1242,329 L1242,330 L1248,330 L1248,331 L1273,331 L1273,368 L1237,368 L1237,367 L1231,367 L1231,366 L1227,366 L1227,365 L1223,365 L1223,364 L1220,364 L1220,363 L1218,363 L1218,362 L1216,362 L1216,361 L1214,361 L1214,360 L1212,360 L1212,359 L1210,359 L1210,358 L1208,358 L1208,357 L1207,357 L1207,356 L1205,356 L1205,355 L1204,355 L1204,354 L1203,354 L1203,353 L1201,353 L1201,352 L1200,352 L1200,351 L1199,351 L1199,350 L1198,350 L1198,349 L1197,349 L1197,348 L1196,348 L1196,346 L1195,346 L1195,345 L1194,345 L1194,344 L1193,344 L1193,343 L1192,343 L1192,341 L1191,341 L1191,340 L1190,340 L1190,338 L1189,338 L1189,337 L1188,337 L1188,335 L1187,335 L1187,333 L1186,333 L1186,331 L1185,331 L1185,328 L1184,328 L1184,326 L1183,326 L1183,323 L1182,323 L1182,319 L1181,319 L1181,316 L1180,316 L1180,309 L1179,309 L1179,224 L1178,224 L1178,223 L1144,223 L1144,186 L1179,186ZM195,136 L196,136 L196,137 L195,137ZM129,138 L130,138 L130,139 L129,139ZM310,138 L311,138 L311,139 L310,139ZM198,141 L199,141 L199,142 L198,142ZM311,142 L312,142 L312,143 L311,143ZM128,144 L129,144 L129,145 L128,145ZM224,152 L225,152 L225,153 L224,153ZM123,153 L124,153 L124,154 L123,154ZM244,157 L245,157 L245,158 L244,158ZM120,158 L121,158 L121,159 L120,159ZM313,159 L314,159 L314,160 L313,160ZM313,164 L314,164 L314,166 L313,166ZM116,165 L117,165 L117,166 L116,166ZM312,176 L313,176 L313,177 L312,177ZM448,182 L453,182 L453,183 L466,183 L466,184 L472,184 L472,185 L476,185 L476,186 L479,186 L479,187 L483,187 L483,188 L485,188 L485,189 L488,189 L488,190 L491,190 L491,191 L493,191 L493,192 L495,192 L495,193 L497,193 L497,194 L499,194 L499,195 L500,195 L500,196 L502,196 L502,197 L504,197 L504,198 L505,198 L505,199 L507,199 L507,200 L508,200 L508,201 L509,201 L509,202 L511,202 L511,203 L512,203 L512,204 L513,204 L513,205 L514,205 L514,206 L516,206 L516,207 L517,207 L517,208 L518,208 L518,209 L519,209 L519,210 L520,210 L520,211 L521,211 L521,212 L522,212 L522,213 L523,213 L523,214 L524,214 L524,216 L525,216 L525,217 L526,217 L526,218 L527,218 L527,219 L528,219 L528,221 L529,221 L529,222 L530,222 L530,223 L531,223 L531,225 L532,225 L532,226 L533,226 L533,228 L534,228 L534,230 L535,230 L535,232 L536,232 L536,234 L537,234 L537,236 L538,236 L538,238 L539,238 L539,240 L540,240 L540,243 L541,243 L541,245 L542,245 L542,248 L543,248 L543,252 L544,252 L544,255 L545,255 L545,260 L546,260 L546,266 L547,266 L547,289 L546,289 L546,295 L545,295 L545,299 L544,299 L544,303 L543,303 L543,306 L542,306 L542,309 L541,309 L541,312 L540,312 L540,315 L539,315 L539,317 L538,317 L538,319 L537,319 L537,321 L536,321 L536,323 L535,323 L535,325 L534,325 L534,326 L533,326 L533,328 L532,328 L532,330 L531,330 L531,331 L530,331 L530,333 L529,333 L529,334 L528,334 L528,335 L527,335 L527,337 L526,337 L526,338 L525,338 L525,339 L524,339 L524,340 L523,340 L523,341 L522,341 L522,342 L521,342 L521,344 L520,344 L520,345 L519,345 L519,346 L517,346 L517,347 L516,347 L516,348 L515,348 L515,349 L514,349 L514,350 L513,350 L513,351 L512,351 L512,352 L510,352 L510,353 L509,353 L509,354 L508,354 L508,355 L506,355 L506,356 L505,356 L505,357 L503,357 L503,358 L502,358 L502,359 L500,359 L500,360 L498,360 L498,361 L496,361 L496,362 L494,362 L494,363 L492,363 L492,364 L490,364 L490,365 L487,365 L487,366 L485,366 L485,367 L482,367 L482,368 L478,368 L478,369 L474,369 L474,370 L470,370 L470,371 L463,371 L463,372 L437,372 L437,371 L430,371 L430,370 L426,370 L426,369 L422,369 L422,368 L419,368 L419,367 L415,367 L415,366 L413,366 L413,365 L410,365 L410,364 L408,364 L408,363 L406,363 L406,362 L404,362 L404,361 L402,361 L402,360 L400,360 L400,359 L399,359 L399,358 L397,358 L397,357 L395,357 L395,356 L394,356 L394,355 L392,355 L392,354 L391,354 L391,353 L390,353 L390,352 L388,352 L388,351 L387,351 L387,350 L386,350 L386,349 L385,349 L385,348 L384,348 L384,347 L382,347 L382,346 L381,346 L381,345 L380,345 L380,343 L379,343 L379,342 L378,342 L378,341 L377,341 L377,340 L376,340 L376,339 L375,339 L375,338 L374,338 L374,337 L373,337 L373,335 L372,335 L372,334 L371,334 L371,333 L370,333 L370,331 L369,331 L369,330 L368,330 L368,328 L367,328 L367,326 L366,326 L366,325 L365,325 L365,323 L364,323 L364,321 L363,321 L363,319 L362,319 L362,317 L361,317 L361,315 L360,315 L360,312 L359,312 L359,310 L358,310 L358,307 L357,307 L357,303 L356,303 L356,299 L355,299 L355,295 L354,295 L354,289 L353,289 L353,266 L354,266 L354,260 L355,260 L355,255 L356,255 L356,252 L357,252 L357,249 L358,249 L358,246 L359,246 L359,243 L360,243 L360,241 L361,241 L361,238 L362,238 L362,236 L363,236 L363,235 L364,235 L364,233 L365,233 L365,231 L366,231 L366,229 L367,229 L367,228 L368,228 L368,226 L369,226 L369,225 L370,225 L370,223 L371,223 L371,222 L372,222 L372,221 L373,221 L373,219 L374,219 L374,218 L375,218 L375,217 L376,217 L376,216 L377,216 L377,214 L378,214 L378,213 L379,213 L379,212 L380,212 L380,211 L381,211 L381,210 L382,210 L382,209 L383,209 L383,208 L385,208 L385,207 L386,207 L386,206 L387,206 L387,205 L388,205 L388,204 L389,204 L389,203 L391,203 L391,202 L392,202 L392,201 L393,201 L393,200 L395,200 L395,199 L396,199 L396,198 L398,198 L398,197 L399,197 L399,196 L401,196 L401,195 L403,195 L403,194 L405,194 L405,193 L407,193 L407,192 L409,192 L409,191 L411,191 L411,190 L413,190 L413,189 L416,189 L416,188 L419,188 L419,187 L422,187 L422,186 L425,186 L425,185 L429,185 L429,184 L435,184 L435,183 L448,183ZM832,182 L847,182 L847,183 L856,183 L856,184 L861,184 L861,185 L865,185 L865,186 L869,186 L869,187 L872,187 L872,188 L875,188 L875,189 L878,189 L878,190 L880,190 L880,191 L882,191 L882,192 L884,192 L884,193 L886,193 L886,194 L888,194 L888,195 L890,195 L890,196 L891,196 L891,197 L893,197 L893,198 L894,198 L894,199 L896,199 L896,200 L897,200 L897,201 L899,201 L899,202 L900,202 L900,203 L901,203 L901,204 L902,204 L902,205 L903,205 L903,206 L905,206 L905,207 L906,207 L906,208 L907,208 L907,209 L908,209 L908,210 L909,210 L909,212 L910,212 L910,213 L911,213 L911,214 L912,214 L912,215 L913,215 L913,216 L914,216 L914,217 L915,217 L915,219 L916,219 L916,220 L917,220 L917,221 L918,221 L918,223 L919,223 L919,224 L920,224 L920,226 L921,226 L921,228 L922,228 L922,229 L923,229 L923,231 L924,231 L924,233 L925,233 L925,235 L926,235 L926,237 L927,237 L927,240 L928,240 L928,242 L929,242 L929,245 L930,245 L930,248 L931,248 L931,251 L932,251 L932,255 L933,255 L933,260 L934,260 L934,265 L935,265 L935,289 L934,289 L934,291 L784,291 L784,294 L785,294 L785,298 L786,298 L786,301 L787,301 L787,303 L788,303 L788,305 L789,305 L789,307 L790,307 L790,309 L791,309 L791,311 L792,311 L792,312 L793,312 L793,313 L794,313 L794,315 L795,315 L795,316 L796,316 L796,317 L797,317 L797,318 L798,318 L798,319 L799,319 L799,320 L800,320 L800,321 L801,321 L801,322 L802,322 L802,323 L803,323 L803,324 L805,324 L805,325 L806,325 L806,326 L808,326 L808,327 L809,327 L809,328 L811,328 L811,329 L813,329 L813,330 L815,330 L815,331 L818,331 L818,332 L820,332 L820,333 L824,333 L824,334 L830,334 L830,335 L849,335 L849,334 L854,334 L854,333 L857,333 L857,332 L860,332 L860,331 L863,331 L863,330 L865,330 L865,329 L867,329 L867,328 L868,328 L868,327 L870,327 L870,326 L872,326 L872,325 L873,325 L873,324 L874,324 L874,323 L875,323 L875,322 L876,322 L876,321 L877,321 L877,320 L879,320 L879,319 L880,319 L880,317 L881,317 L881,316 L882,316 L882,315 L883,315 L883,314 L884,314 L884,312 L885,312 L885,310 L929,310 L929,313 L928,313 L928,315 L927,315 L927,317 L926,317 L926,320 L925,320 L925,322 L924,322 L924,324 L923,324 L923,325 L922,325 L922,327 L921,327 L921,329 L920,329 L920,330 L919,330 L919,332 L918,332 L918,333 L917,333 L917,335 L916,335 L916,336 L915,336 L915,337 L914,337 L914,339 L913,339 L913,340 L912,340 L912,341 L911,341 L911,342 L910,342 L910,343 L909,343 L909,344 L908,344 L908,345 L907,345 L907,346 L906,346 L906,347 L905,347 L905,348 L904,348 L904,349 L903,349 L903,350 L902,350 L902,351 L901,351 L901,352 L899,352 L899,353 L898,353 L898,354 L897,354 L897,355 L895,355 L895,356 L894,356 L894,357 L892,357 L892,358 L890,358 L890,359 L889,359 L889,360 L887,360 L887,361 L885,361 L885,362 L883,362 L883,363 L881,363 L881,364 L879,364 L879,365 L876,365 L876,366 L873,366 L873,367 L870,367 L870,368 L867,368 L867,369 L863,369 L863,370 L858,370 L858,371 L852,371 L852,372 L825,372 L825,371 L818,371 L818,370 L814,370 L814,369 L810,369 L810,368 L807,368 L807,367 L804,367 L804,366 L801,366 L801,365 L799,365 L799,364 L796,364 L796,363 L794,363 L794,362 L792,362 L792,361 L790,361 L790,360 L788,360 L788,359 L787,359 L787,358 L785,358 L785,357 L784,357 L784,356 L782,356 L782,355 L781,355 L781,354 L779,354 L779,353 L778,353 L778,352 L777,352 L777,351 L775,351 L775,350 L774,350 L774,349 L773,349 L773,348 L772,348 L772,347 L771,347 L771,346 L770,346 L770,345 L769,345 L769,344 L768,344 L768,343 L767,343 L767,342 L766,342 L766,341 L765,341 L765,340 L764,340 L764,339 L763,339 L763,337 L762,337 L762,336 L761,336 L761,335 L760,335 L760,334 L759,334 L759,332 L758,332 L758,331 L757,331 L757,329 L756,329 L756,328 L755,328 L755,326 L754,326 L754,325 L753,325 L753,323 L752,323 L752,321 L751,321 L751,319 L750,319 L750,317 L749,317 L749,314 L748,314 L748,312 L747,312 L747,309 L746,309 L746,306 L745,306 L745,303 L744,303 L744,299 L743,299 L743,294 L742,294 L742,288 L741,288 L741,266 L742,266 L742,260 L743,260 L743,255 L744,255 L744,251 L745,251 L745,248 L746,248 L746,245 L747,245 L747,242 L748,242 L748,240 L749,240 L749,238 L750,238 L750,236 L751,236 L751,234 L752,234 L752,232 L753,232 L753,230 L754,230 L754,228 L755,228 L755,227 L756,227 L756,225 L757,225 L757,224 L758,224 L758,223 L759,223 L759,221 L760,221 L760,220 L761,220 L761,219 L762,219 L762,218 L763,218 L763,216 L764,216 L764,215 L765,215 L765,214 L766,214 L766,213 L767,213 L767,212 L768,212 L768,211 L769,211 L769,210 L770,210 L770,209 L771,209 L771,208 L772,208 L772,207 L773,207 L773,206 L774,206 L774,205 L775,205 L775,204 L777,204 L777,203 L778,203 L778,202 L779,202 L779,201 L781,201 L781,200 L782,200 L782,199 L783,199 L783,198 L785,198 L785,197 L786,197 L786,196 L788,196 L788,195 L790,195 L790,194 L792,194 L792,193 L794,193 L794,192 L796,192 L796,191 L798,191 L798,190 L800,190 L800,189 L803,189 L803,188 L806,188 L806,187 L809,187 L809,186 L812,186 L812,185 L816,185 L816,184 L822,184 L822,183 L832,183ZM1485,182 L1498,182 L1498,183 L1508,183 L1508,184 L1513,184 L1513,185 L1518,185 L1518,186 L1521,186 L1521,187 L1524,187 L1524,188 L1527,188 L1527,189 L1530,189 L1530,190 L1532,190 L1532,191 L1535,191 L1535,192 L1537,192 L1537,193 L1539,193 L1539,194 L1540,194 L1540,195 L1542,195 L1542,196 L1544,196 L1544,197 L1546,197 L1546,198 L1547,198 L1547,199 L1549,199 L1549,200 L1550,200 L1550,201 L1551,201 L1551,202 L1553,202 L1553,203 L1554,203 L1554,204 L1555,204 L1555,205 L1556,205 L1556,206 L1558,206 L1558,207 L1559,207 L1559,208 L1560,208 L1560,209 L1561,209 L1561,210 L1562,210 L1562,211 L1563,211 L1563,212 L1564,212 L1564,213 L1565,213 L1565,215 L1566,215 L1566,216 L1567,216 L1567,217 L1568,217 L1568,218 L1569,218 L1569,219 L1570,219 L1570,221 L1571,221 L1571,222 L1572,222 L1572,224 L1573,224 L1573,225 L1574,225 L1574,227 L1575,227 L1575,228 L1576,228 L1576,230 L1577,230 L1577,232 L1578,232 L1578,233 L1579,233 L1579,235 L1580,235 L1580,238 L1581,238 L1581,240 L1582,240 L1582,242 L1583,242 L1583,245 L1584,245 L1584,248 L1585,248 L1585,251 L1586,251 L1586,255 L1587,255 L1587,260 L1588,260 L1588,267 L1589,267 L1589,368 L1549,368 L1549,348 L1547,348 L1547,349 L1546,349 L1546,351 L1545,351 L1545,352 L1544,352 L1544,353 L1542,353 L1542,354 L1541,354 L1541,355 L1540,355 L1540,356 L1539,356 L1539,357 L1538,357 L1538,358 L1536,358 L1536,359 L1535,359 L1535,360 L1533,360 L1533,361 L1532,361 L1532,362 L1530,362 L1530,363 L1528,363 L1528,364 L1526,364 L1526,365 L1524,365 L1524,366 L1521,366 L1521,367 L1519,367 L1519,368 L1516,368 L1516,369 L1512,369 L1512,370 L1508,370 L1508,371 L1502,371 L1502,372 L1477,372 L1477,371 L1472,371 L1472,370 L1467,370 L1467,369 L1463,369 L1463,368 L1460,368 L1460,367 L1457,367 L1457,366 L1454,366 L1454,365 L1452,365 L1452,364 L1450,364 L1450,363 L1448,363 L1448,362 L1446,362 L1446,361 L1444,361 L1444,360 L1442,360 L1442,359 L1441,359 L1441,358 L1439,358 L1439,357 L1437,357 L1437,356 L1436,356 L1436,355 L1434,355 L1434,354 L1433,354 L1433,353 L1432,353 L1432,352 L1431,352 L1431,351 L1429,351 L1429,350 L1428,350 L1428,349 L1427,349 L1427,348 L1426,348 L1426,347 L1425,347 L1425,346 L1424,346 L1424,345 L1423,345 L1423,344 L1422,344 L1422,343 L1421,343 L1421,342 L1420,342 L1420,341 L1419,341 L1419,340 L1418,340 L1418,338 L1417,338 L1417,337 L1416,337 L1416,336 L1415,336 L1415,335 L1414,335 L1414,333 L1413,333 L1413,332 L1412,332 L1412,330 L1411,330 L1411,329 L1410,329 L1410,327 L1409,327 L1409,325 L1408,325 L1408,324 L1407,324 L1407,322 L1406,322 L1406,320 L1405,320 L1405,318 L1404,318 L1404,315 L1403,315 L1403,313 L1402,313 L1402,310 L1401,310 L1401,307 L1400,307 L1400,304 L1399,304 L1399,300 L1398,300 L1398,295 L1397,295 L1397,289 L1396,289 L1396,266 L1397,266 L1397,260 L1398,260 L1398,255 L1399,255 L1399,252 L1400,252 L1400,248 L1401,248 L1401,245 L1402,245 L1402,243 L1403,243 L1403,240 L1404,240 L1404,238 L1405,238 L1405,236 L1406,236 L1406,234 L1407,234 L1407,232 L1408,232 L1408,230 L1409,230 L1409,228 L1410,228 L1410,227 L1411,227 L1411,225 L1412,225 L1412,224 L1413,224 L1413,222 L1414,222 L1414,221 L1415,221 L1415,220 L1416,220 L1416,218 L1417,218 L1417,217 L1418,217 L1418,216 L1419,216 L1419,215 L1420,215 L1420,214 L1421,214 L1421,212 L1422,212 L1422,211 L1423,211 L1423,210 L1424,210 L1424,209 L1425,209 L1425,208 L1427,208 L1427,207 L1428,207 L1428,206 L1429,206 L1429,205 L1430,205 L1430,204 L1431,204 L1431,203 L1432,203 L1432,202 L1434,202 L1434,201 L1435,201 L1435,200 L1436,200 L1436,199 L1438,199 L1438,198 L1439,198 L1439,197 L1441,197 L1441,196 L1443,196 L1443,195 L1444,195 L1444,194 L1446,194 L1446,193 L1448,193 L1448,192 L1450,192 L1450,191 L1452,191 L1452,190 L1454,190 L1454,189 L1457,189 L1457,188 L1460,188 L1460,187 L1463,187 L1463,186 L1467,186 L1467,185 L1470,185 L1470,184 L1476,184 L1476,183 L1485,183ZM1036,183 L1063,183 L1063,184 L1068,184 L1068,185 L1073,185 L1073,186 L1076,186 L1076,187 L1079,187 L1079,188 L1082,188 L1082,189 L1084,189 L1084,190 L1086,190 L1086,191 L1088,191 L1088,192 L1090,192 L1090,193 L1092,193 L1092,194 L1094,194 L1094,195 L1096,195 L1096,196 L1097,196 L1097,197 L1099,197 L1099,198 L1100,198 L1100,199 L1101,199 L1101,200 L1103,200 L1103,201 L1104,201 L1104,202 L1105,202 L1105,203 L1106,203 L1106,204 L1107,204 L1107,205 L1108,205 L1108,206 L1109,206 L1109,207 L1110,207 L1110,208 L1111,208 L1111,209 L1112,209 L1112,210 L1113,210 L1113,211 L1114,211 L1114,212 L1115,212 L1115,213 L1116,213 L1116,215 L1117,215 L1117,216 L1118,216 L1118,218 L1119,218 L1119,219 L1120,219 L1120,221 L1121,221 L1121,222 L1122,222 L1122,224 L1123,224 L1123,226 L1124,226 L1124,228 L1125,228 L1125,230 L1126,230 L1126,232 L1127,232 L1127,234 L1128,234 L1128,237 L1129,237 L1129,240 L1130,240 L1130,244 L1131,244 L1131,248 L1132,248 L1132,252 L1133,252 L1133,259 L1134,259 L1134,368 L1093,368 L1093,367 L1092,367 L1092,260 L1091,260 L1091,254 L1090,254 L1090,251 L1089,251 L1089,248 L1088,248 L1088,245 L1087,245 L1087,243 L1086,243 L1086,242 L1085,242 L1085,240 L1084,240 L1084,238 L1083,238 L1083,237 L1082,237 L1082,236 L1081,236 L1081,235 L1080,235 L1080,234 L1079,234 L1079,233 L1078,233 L1078,232 L1077,232 L1077,231 L1076,231 L1076,230 L1075,230 L1075,229 L1074,229 L1074,228 L1072,228 L1072,227 L1070,227 L1070,226 L1068,226 L1068,225 L1066,225 L1066,224 L1064,224 L1064,223 L1061,223 L1061,222 L1057,222 L1057,221 L1042,221 L1042,222 L1037,222 L1037,223 L1034,223 L1034,224 L1031,224 L1031,225 L1029,225 L1029,226 L1027,226 L1027,227 L1025,227 L1025,228 L1023,228 L1023,229 L1022,229 L1022,230 L1021,230 L1021,231 L1020,231 L1020,232 L1018,232 L1018,233 L1017,233 L1017,235 L1016,235 L1016,236 L1015,236 L1015,237 L1014,237 L1014,238 L1013,238 L1013,239 L1012,239 L1012,241 L1011,241 L1011,242 L1010,242 L1010,244 L1009,244 L1009,246 L1008,246 L1008,248 L1007,248 L1007,251 L1006,251 L1006,254 L1005,254 L1005,259 L1004,259 L1004,274 L1003,274 L1003,287 L1004,287 L1004,289 L1003,289 L1003,368 L961,368 L961,263 L962,263 L962,256 L963,256 L963,251 L964,251 L964,247 L965,247 L965,244 L966,244 L966,241 L967,241 L967,238 L968,238 L968,236 L969,236 L969,234 L970,234 L970,231 L971,231 L971,229 L972,229 L972,228 L973,228 L973,226 L974,226 L974,224 L975,224 L975,223 L976,223 L976,221 L977,221 L977,220 L978,220 L978,218 L979,218 L979,217 L980,217 L980,215 L981,215 L981,214 L982,214 L982,213 L983,213 L983,212 L984,212 L984,211 L985,211 L985,210 L986,210 L986,209 L987,209 L987,208 L988,208 L988,207 L989,207 L989,206 L990,206 L990,205 L991,205 L991,204 L992,204 L992,203 L993,203 L993,202 L994,202 L994,201 L995,201 L995,200 L997,200 L997,199 L998,199 L998,198 L1000,198 L1000,197 L1001,197 L1001,196 L1003,196 L1003,195 L1004,195 L1004,194 L1006,194 L1006,193 L1008,193 L1008,192 L1010,192 L1010,191 L1012,191 L1012,190 L1014,190 L1014,189 L1017,189 L1017,188 L1019,188 L1019,187 L1023,187 L1023,186 L1026,186 L1026,185 L1030,185 L1030,184 L1036,184ZM1371,183 L1387,183 L1387,184 L1388,184 L1388,222 L1387,222 L1387,223 L1370,223 L1370,224 L1366,224 L1366,225 L1363,225 L1363,226 L1361,226 L1361,227 L1359,227 L1359,228 L1357,228 L1357,229 L1355,229 L1355,230 L1354,230 L1354,231 L1352,231 L1352,232 L1351,232 L1351,233 L1350,233 L1350,234 L1349,234 L1349,235 L1348,235 L1348,236 L1347,236 L1347,237 L1346,237 L1346,239 L1345,239 L1345,240 L1344,240 L1344,242 L1343,242 L1343,244 L1342,244 L1342,245 L1341,245 L1341,247 L1340,247 L1340,250 L1339,250 L1339,253 L1338,253 L1338,257 L1337,257 L1337,264 L1336,264 L1336,368 L1294,368 L1294,367 L1293,367 L1293,266 L1294,266 L1294,256 L1295,256 L1295,250 L1296,250 L1296,246 L1297,246 L1297,243 L1298,243 L1298,240 L1299,240 L1299,237 L1300,237 L1300,234 L1301,234 L1301,232 L1302,232 L1302,230 L1303,230 L1303,228 L1304,228 L1304,226 L1305,226 L1305,224 L1306,224 L1306,222 L1307,222 L1307,221 L1308,221 L1308,219 L1309,219 L1309,218 L1310,218 L1310,217 L1311,217 L1311,215 L1312,215 L1312,214 L1313,214 L1313,213 L1314,213 L1314,212 L1315,212 L1315,210 L1316,210 L1316,209 L1317,209 L1317,208 L1318,208 L1318,207 L1319,207 L1319,206 L1320,206 L1320,205 L1321,205 L1321,204 L1322,204 L1322,203 L1324,203 L1324,202 L1325,202 L1325,201 L1326,201 L1326,200 L1327,200 L1327,199 L1329,199 L1329,198 L1330,198 L1330,197 L1331,197 L1331,196 L1333,196 L1333,195 L1335,195 L1335,194 L1336,194 L1336,193 L1338,193 L1338,192 L1340,192 L1340,191 L1342,191 L1342,190 L1345,190 L1345,189 L1347,189 L1347,188 L1350,188 L1350,187 L1353,187 L1353,186 L1357,186 L1357,185 L1362,185 L1362,184 L1371,184ZM310,186 L311,186 L311,187 L310,187ZM545,187 L591,187 L591,188 L592,188 L592,191 L593,191 L593,193 L594,193 L594,196 L595,196 L595,198 L596,198 L596,200 L597,200 L597,203 L598,203 L598,205 L599,205 L599,208 L600,208 L600,210 L601,210 L601,213 L602,213 L602,215 L603,215 L603,217 L604,217 L604,220 L605,220 L605,222 L606,222 L606,225 L607,225 L607,227 L608,227 L608,229 L609,229 L609,232 L610,232 L610,234 L611,234 L611,237 L612,237 L612,239 L613,239 L613,242 L614,242 L614,244 L615,244 L615,247 L616,247 L616,249 L617,249 L617,251 L618,251 L618,254 L619,254 L619,256 L620,256 L620,259 L621,259 L621,261 L622,261 L622,264 L623,264 L623,266 L624,266 L624,269 L625,269 L625,271 L626,271 L626,273 L627,273 L627,276 L628,276 L628,278 L629,278 L629,281 L630,281 L630,283 L631,283 L631,286 L632,286 L632,288 L633,288 L633,291 L634,291 L634,293 L635,293 L635,296 L636,296 L636,298 L637,298 L637,301 L638,301 L638,303 L639,303 L639,306 L640,306 L640,308 L641,308 L641,310 L642,310 L642,313 L643,313 L643,316 L644,316 L644,318 L646,318 L646,315 L647,315 L647,313 L648,313 L648,310 L649,310 L649,308 L650,308 L650,305 L651,305 L651,302 L652,302 L652,300 L653,300 L653,298 L654,298 L654,295 L655,295 L655,293 L656,293 L656,290 L657,290 L657,288 L658,288 L658,286 L659,286 L659,283 L660,283 L660,281 L661,281 L661,278 L662,278 L662,276 L663,276 L663,273 L664,273 L664,271 L665,271 L665,269 L666,269 L666,266 L667,266 L667,264 L668,264 L668,261 L669,261 L669,259 L670,259 L670,256 L671,256 L671,254 L672,254 L672,251 L673,251 L673,249 L674,249 L674,247 L675,247 L675,244 L676,244 L676,242 L677,242 L677,240 L678,240 L678,237 L679,237 L679,235 L680,235 L680,232 L681,232 L681,230 L682,230 L682,228 L683,228 L683,225 L684,225 L684,223 L685,223 L685,221 L686,221 L686,218 L687,218 L687,216 L688,216 L688,213 L689,213 L689,211 L690,211 L690,209 L691,209 L691,207 L692,207 L692,204 L693,204 L693,202 L694,202 L694,200 L695,200 L695,197 L696,197 L696,195 L697,195 L697,193 L698,193 L698,190 L699,190 L699,188 L700,188 L700,187 L745,187 L745,188 L744,188 L744,191 L743,191 L743,193 L742,193 L742,195 L741,195 L741,198 L740,198 L740,200 L739,200 L739,202 L738,202 L738,205 L737,205 L737,207 L736,207 L736,209 L735,209 L735,211 L734,211 L734,214 L733,214 L733,216 L732,216 L732,218 L731,218 L731,221 L730,221 L730,223 L729,223 L729,226 L728,226 L728,228 L727,228 L727,230 L726,230 L726,232 L725,232 L725,235 L724,235 L724,237 L723,237 L723,240 L722,240 L722,242 L721,242 L721,244 L720,244 L720,246 L719,246 L719,249 L718,249 L718,251 L717,251 L717,253 L716,253 L716,256 L715,256 L715,258 L714,258 L714,260 L713,260 L713,263 L712,263 L712,265 L711,265 L711,267 L710,267 L710,270 L709,270 L709,272 L708,272 L708,274 L707,274 L707,276 L706,276 L706,279 L705,279 L705,281 L704,281 L704,283 L703,283 L703,286 L702,286 L702,288 L701,288 L701,290 L700,290 L700,293 L699,293 L699,295 L698,295 L698,297 L697,297 L697,300 L696,300 L696,302 L695,302 L695,304 L694,304 L694,307 L693,307 L693,309 L692,309 L692,311 L691,311 L691,314 L690,314 L690,316 L689,316 L689,318 L688,318 L688,321 L687,321 L687,323 L686,323 L686,325 L685,325 L685,328 L684,328 L684,330 L683,330 L683,332 L682,332 L682,335 L681,335 L681,337 L680,337 L680,339 L679,339 L679,342 L678,342 L678,344 L677,344 L677,346 L676,346 L676,349 L675,349 L675,351 L674,351 L674,353 L673,353 L673,356 L672,356 L672,358 L671,358 L671,360 L670,360 L670,363 L669,363 L669,365 L668,365 L668,367 L667,367 L667,368 L623,368 L623,367 L622,367 L622,366 L621,366 L621,363 L620,363 L620,361 L619,361 L619,358 L618,358 L618,356 L617,356 L617,354 L616,354 L616,351 L615,351 L615,349 L614,349 L614,347 L613,347 L613,344 L612,344 L612,342 L611,342 L611,340 L610,340 L610,337 L609,337 L609,335 L608,335 L608,333 L607,333 L607,331 L606,331 L606,328 L605,328 L605,326 L604,326 L604,323 L603,323 L603,321 L602,321 L602,319 L601,319 L601,317 L600,317 L600,314 L599,314 L599,312 L598,312 L598,309 L597,309 L597,307 L596,307 L596,305 L595,305 L595,303 L594,303 L594,300 L593,300 L593,298 L592,298 L592,296 L591,296 L591,293 L590,293 L590,291 L589,291 L589,289 L588,289 L588,286 L587,286 L587,284 L586,284 L586,282 L585,282 L585,279 L584,279 L584,277 L583,277 L583,275 L582,275 L582,272 L581,272 L581,270 L580,270 L580,268 L579,268 L579,266 L578,266 L578,263 L577,263 L577,261 L576,261 L576,259 L575,259 L575,256 L574,256 L574,254 L573,254 L573,252 L572,252 L572,249 L571,249 L571,247 L570,247 L570,245 L569,245 L569,242 L568,242 L568,240 L567,240 L567,237 L566,237 L566,235 L565,235 L565,233 L564,233 L564,230 L563,230 L563,228 L562,228 L562,226 L561,226 L561,224 L560,224 L560,221 L559,221 L559,219 L558,219 L558,217 L557,217 L557,214 L556,214 L556,212 L555,212 L555,209 L554,209 L554,207 L553,207 L553,205 L552,205 L552,203 L551,203 L551,200 L550,200 L550,198 L549,198 L549,195 L548,195 L548,193 L547,193 L547,191 L546,191 L546,189 L545,189ZM103,195 L104,195 L104,196 L103,196ZM156,195 L157,195 L157,196 L156,196ZM235,197 L236,197 L236,198 L235,198ZM164,198 L165,198 L165,203 L164,203ZM232,199 L233,199 L233,200 L232,200ZM230,200 L231,200 L231,201 L230,201ZM219,203 L220,203 L220,204 L219,204ZM199,206 L200,206 L200,207 L199,207ZM302,207 L303,207 L303,208 L302,208ZM98,217 L99,217 L99,218 L98,218ZM831,219 L831,220 L826,220 L826,221 L822,221 L822,222 L818,222 L818,223 L816,223 L816,224 L813,224 L813,225 L811,225 L811,226 L810,226 L810,227 L808,227 L808,228 L806,228 L806,229 L805,229 L805,230 L804,230 L804,231 L802,231 L802,232 L801,232 L801,233 L800,233 L800,234 L799,234 L799,235 L798,235 L798,236 L797,236 L797,237 L796,237 L796,238 L795,238 L795,239 L794,239 L794,240 L793,240 L793,242 L792,242 L792,243 L791,243 L791,245 L790,245 L790,247 L789,247 L789,248 L788,248 L788,250 L787,250 L787,253 L786,253 L786,256 L785,256 L785,259 L891,259 L891,256 L890,256 L890,253 L889,253 L889,250 L888,250 L888,248 L887,248 L887,246 L886,246 L886,244 L885,244 L885,243 L884,243 L884,241 L883,241 L883,240 L882,240 L882,238 L881,238 L881,237 L880,237 L880,236 L879,236 L879,235 L878,235 L878,234 L877,234 L877,233 L876,233 L876,232 L875,232 L875,231 L874,231 L874,230 L872,230 L872,229 L871,229 L871,228 L869,228 L869,227 L867,227 L867,226 L866,226 L866,225 L864,225 L864,224 L862,224 L862,223 L859,223 L859,222 L856,222 L856,221 L852,221 L852,220 L847,220 L847,219ZM1492,220 L1492,221 L1482,221 L1482,222 L1477,222 L1477,223 L1474,223 L1474,224 L1472,224 L1472,225 L1470,225 L1470,226 L1468,226 L1468,227 L1466,227 L1466,228 L1464,228 L1464,229 L1462,229 L1462,230 L1461,230 L1461,231 L1459,231 L1459,232 L1458,232 L1458,233 L1457,233 L1457,234 L1456,234 L1456,235 L1455,235 L1455,236 L1453,236 L1453,238 L1452,238 L1452,239 L1451,239 L1451,240 L1450,240 L1450,241 L1449,241 L1449,242 L1448,242 L1448,244 L1447,244 L1447,245 L1446,245 L1446,247 L1445,247 L1445,248 L1444,248 L1444,250 L1443,250 L1443,252 L1442,252 L1442,254 L1441,254 L1441,257 L1440,257 L1440,260 L1439,260 L1439,264 L1438,264 L1438,269 L1437,269 L1437,284 L1438,284 L1438,290 L1439,290 L1439,294 L1440,294 L1440,297 L1441,297 L1441,300 L1442,300 L1442,302 L1443,302 L1443,304 L1444,304 L1444,306 L1445,306 L1445,308 L1446,308 L1446,310 L1447,310 L1447,311 L1448,311 L1448,312 L1449,312 L1449,314 L1450,314 L1450,315 L1451,315 L1451,316 L1452,316 L1452,317 L1453,317 L1453,318 L1454,318 L1454,319 L1455,319 L1455,320 L1456,320 L1456,321 L1457,321 L1457,322 L1458,322 L1458,323 L1459,323 L1459,324 L1460,324 L1460,325 L1462,325 L1462,326 L1463,326 L1463,327 L1465,327 L1465,328 L1467,328 L1467,329 L1469,329 L1469,330 L1471,330 L1471,331 L1473,331 L1473,332 L1476,332 L1476,333 L1480,333 L1480,334 L1485,334 L1485,335 L1500,335 L1500,334 L1505,334 L1505,333 L1509,333 L1509,332 L1512,332 L1512,331 L1515,331 L1515,330 L1517,330 L1517,329 L1519,329 L1519,328 L1521,328 L1521,327 L1522,327 L1522,326 L1524,326 L1524,325 L1525,325 L1525,324 L1527,324 L1527,323 L1528,323 L1528,322 L1529,322 L1529,321 L1530,321 L1530,320 L1531,320 L1531,319 L1532,319 L1532,318 L1533,318 L1533,317 L1534,317 L1534,316 L1535,316 L1535,315 L1536,315 L1536,313 L1537,313 L1537,312 L1538,312 L1538,311 L1539,311 L1539,309 L1540,309 L1540,307 L1541,307 L1541,305 L1542,305 L1542,304 L1543,304 L1543,301 L1544,301 L1544,299 L1545,299 L1545,296 L1546,296 L1546,293 L1547,293 L1547,289 L1548,289 L1548,282 L1549,282 L1549,271 L1548,271 L1548,264 L1547,264 L1547,261 L1546,261 L1546,258 L1545,258 L1545,255 L1544,255 L1544,253 L1543,253 L1543,251 L1542,251 L1542,249 L1541,249 L1541,247 L1540,247 L1540,245 L1539,245 L1539,244 L1538,244 L1538,243 L1537,243 L1537,241 L1536,241 L1536,240 L1535,240 L1535,239 L1534,239 L1534,238 L1533,238 L1533,237 L1532,237 L1532,236 L1531,236 L1531,235 L1530,235 L1530,234 L1529,234 L1529,233 L1528,233 L1528,232 L1527,232 L1527,231 L1525,231 L1525,230 L1524,230 L1524,229 L1522,229 L1522,228 L1520,228 L1520,227 L1518,227 L1518,226 L1516,226 L1516,225 L1514,225 L1514,224 L1511,224 L1511,223 L1508,223 L1508,222 L1504,222 L1504,221 L1495,221 L1495,220ZM440,221 L440,222 L435,222 L435,223 L432,223 L432,224 L429,224 L429,225 L427,225 L427,226 L425,226 L425,227 L423,227 L423,228 L421,228 L421,229 L420,229 L420,230 L418,230 L418,231 L417,231 L417,232 L416,232 L416,233 L414,233 L414,234 L413,234 L413,235 L412,235 L412,236 L411,236 L411,237 L410,237 L410,238 L409,238 L409,239 L408,239 L408,240 L407,240 L407,242 L406,242 L406,243 L405,243 L405,244 L404,244 L404,246 L403,246 L403,247 L402,247 L402,249 L401,249 L401,251 L400,251 L400,253 L399,253 L399,255 L398,255 L398,258 L397,258 L397,261 L396,261 L396,265 L395,265 L395,272 L394,272 L394,282 L395,282 L395,290 L396,290 L396,294 L397,294 L397,297 L398,297 L398,300 L399,300 L399,302 L400,302 L400,304 L401,304 L401,306 L402,306 L402,308 L403,308 L403,309 L404,309 L404,311 L405,311 L405,312 L406,312 L406,314 L407,314 L407,315 L408,315 L408,316 L409,316 L409,317 L410,317 L410,318 L411,318 L411,319 L412,319 L412,320 L413,320 L413,321 L414,321 L414,322 L415,322 L415,323 L416,323 L416,324 L418,324 L418,325 L419,325 L419,326 L421,326 L421,327 L422,327 L422,328 L424,328 L424,329 L426,329 L426,330 L428,330 L428,331 L431,331 L431,332 L434,332 L434,333 L437,333 L437,334 L443,334 L443,335 L458,335 L458,334 L463,334 L463,333 L467,333 L467,332 L470,332 L470,331 L472,331 L472,330 L475,330 L475,329 L477,329 L477,328 L478,328 L478,327 L480,327 L480,326 L482,326 L482,325 L483,325 L483,324 L484,324 L484,323 L485,323 L485,322 L486,322 L486,321 L488,321 L488,320 L489,320 L489,319 L490,319 L490,318 L491,318 L491,317 L492,317 L492,315 L493,315 L493,314 L494,314 L494,313 L495,313 L495,311 L496,311 L496,310 L497,310 L497,308 L498,308 L498,306 L499,306 L499,305 L500,305 L500,303 L501,303 L501,300 L502,300 L502,298 L503,298 L503,295 L504,295 L504,291 L505,291 L505,286 L506,286 L506,268 L505,268 L505,263 L504,263 L504,259 L503,259 L503,256 L502,256 L502,254 L501,254 L501,252 L500,252 L500,250 L499,250 L499,248 L498,248 L498,246 L497,246 L497,245 L496,245 L496,243 L495,243 L495,242 L494,242 L494,241 L493,241 L493,239 L492,239 L492,238 L491,238 L491,237 L490,237 L490,236 L489,236 L489,235 L488,235 L488,234 L486,234 L486,233 L485,233 L485,232 L484,232 L484,231 L482,231 L482,230 L481,230 L481,229 L479,229 L479,228 L478,228 L478,227 L476,227 L476,226 L474,226 L474,225 L472,225 L472,224 L469,224 L469,223 L466,223 L466,222 L461,222 L461,221ZM127,221 L128,221 L128,222 L127,222ZM293,221 L294,221 L294,222 L293,222ZM193,225 L194,225 L194,226 L193,226ZM175,226 L176,226 L176,227 L175,227ZM97,227 L98,227 L98,228 L97,228ZM250,257 L251,257 L251,258 L250,258ZM195,259 L196,259 L196,260 L195,260ZM207,259 L208,259 L208,260 L207,260ZM196,268 L197,268 L197,269 L196,269ZM99,269 L100,269 L100,270 L99,270ZM260,269 L261,269 L261,270 L260,270ZM194,273 L195,273 L195,274 L194,274ZM193,275 L194,275 L194,276 L193,276ZM210,281 L211,281 L211,282 L210,282ZM175,288 L176,288 L176,289 L175,289ZM162,292 L163,292 L163,293 L162,293ZM209,298 L210,298 L210,299 L209,299ZM285,299 L286,299 L286,300 L285,300ZM291,306 L292,306 L292,307 L291,307ZM232,337 L233,337 L233,338 L232,338ZM245,354 L246,354 L246,355 L245,355ZM336,361 L337,361 L337,362 L336,362ZM153,364 L154,364 L154,365 L153,365ZM340,366 L341,366 L341,367 L340,367ZM256,368 L257,368 L257,369 L256,369ZM263,377 L264,377 L264,378 L263,378ZM144,380 L145,380 L145,381 L144,381ZM269,385 L270,385 L270,386 L269,386ZM274,391 L275,391 L275,392 L274,392ZM137,394 L138,394 L138,395 L137,395ZM277,395 L278,395 L278,396 L277,396ZM364,395 L365,395 L365,396 L364,396ZM365,397 L366,397 L366,398 L365,398ZM61,398 L65,398 L65,399 L61,399ZM72,398 L83,398 L83,399 L72,399ZM92,398 L101,398 L101,399 L92,399ZM103,398 L117,398 L117,399 L103,399ZM120,398 L133,398 L133,399 L120,399ZM134,398 L135,398 L135,399 L134,399ZM285,398 L290,398 L290,399 L285,399ZM298,398 L311,398 L311,399 L298,399ZM313,398 L327,398 L327,399 L313,399ZM330,398 L343,398 L343,399 L330,399ZM345,398 L350,398 L350,399 L345,399ZM351,398 L352,398 L352,399 L351,399ZM355,398 L359,398 L359,399 L355,399Z" fill="#071a35" fill-rule="evenodd"/></svg>
