<svg xmlns="http://www.w3.org/2000/svg" viewBox="0 0 370 453" role="img" aria-label="Roventra symbol"><path d="M55,54 L194,54 L194,55 L210,55 L210,56 L217,56 L217,57 L222,57 L222,58 L227,58 L227,59 L231,59 L231,60 L234,60 L234,61 L237,61 L237,62 L240,62 L240,63 L243,63 L243,64 L245,64 L245,65 L248,65 L248,66 L250,66 L250,67 L252,67 L252,68 L254,68 L254,69 L256,69 L256,70 L258,70 L258,71 L260,71 L260,72 L262,72 L262,73 L263,73 L263,74 L265,74 L265,75 L267,75 L267,76 L268,76 L268,77 L269,77 L269,78 L271,78 L271,79 L272,79 L272,80 L273,80 L273,81 L275,81 L275,82 L276,82 L276,83 L277,83 L277,84 L278,84 L278,85 L279,85 L279,86 L280,86 L280,87 L281,87 L281,88 L282,88 L282,89 L283,89 L283,90 L284,90 L284,91 L285,91 L285,92 L286,92 L286,93 L287,93 L287,94 L288,94 L288,95 L289,95 L289,96 L290,96 L290,98 L291,98 L291,99 L292,99 L292,100 L293,100 L293,102 L294,102 L294,103 L295,103 L295,104 L296,104 L296,106 L297,106 L297,107 L298,107 L298,109 L299,109 L299,111 L300,111 L300,113 L301,113 L301,115 L302,115 L302,116 L303,116 L303,118 L304,118 L304,120 L305,120 L305,123 L306,123 L306,125 L307,125 L307,128 L308,128 L308,131 L309,131 L309,135 L310,135 L310,139 L311,139 L311,143 L312,143 L312,148 L313,148 L313,160 L314,160 L314,164 L313,164 L313,176 L312,176 L312,182 L311,182 L311,186 L310,186 L310,190 L309,190 L309,193 L308,193 L308,196 L307,196 L307,199 L306,199 L306,202 L305,202 L305,203 L304,203 L304,205 L303,205 L303,207 L302,207 L302,209 L301,209 L301,211 L300,211 L300,213 L299,213 L299,214 L298,214 L298,216 L297,216 L297,218 L296,218 L296,219 L295,219 L295,220 L294,220 L294,221 L293,221 L293,223 L292,223 L292,224 L291,224 L291,225 L290,225 L290,226 L289,226 L289,227 L288,227 L288,228 L287,228 L287,229 L286,229 L286,230 L285,230 L285,231 L284,231 L284,232 L283,232 L283,233 L282,233 L282,234 L281,234 L281,235 L280,235 L280,236 L279,236 L279,237 L278,237 L278,238 L276,238 L276,239 L275,239 L275,240 L274,240 L274,241 L273,241 L273,242 L272,242 L272,243 L270,243 L270,244 L268,244 L268,245 L267,245 L267,246 L265,246 L265,247 L263,247 L263,248 L262,248 L262,249 L260,249 L260,250 L258,250 L258,251 L256,251 L256,252 L254,252 L254,253 L252,253 L252,254 L250,254 L250,255 L249,255 L249,256 L250,256 L250,258 L251,258 L251,259 L252,259 L252,260 L253,260 L253,261 L254,261 L254,262 L255,262 L255,263 L256,263 L256,265 L257,265 L257,266 L258,266 L258,267 L259,267 L259,268 L260,268 L260,270 L261,270 L261,271 L262,271 L262,272 L263,272 L263,273 L264,273 L264,274 L265,274 L265,275 L266,275 L266,276 L267,276 L267,278 L268,278 L268,279 L269,279 L269,280 L270,280 L270,281 L271,281 L271,282 L272,282 L272,284 L273,284 L273,285 L274,285 L274,286 L275,286 L275,287 L276,287 L276,288 L277,288 L277,290 L278,290 L278,291 L279,291 L279,292 L280,292 L280,293 L281,293 L281,294 L282,294 L282,296 L283,296 L283,297 L284,297 L284,298 L285,298 L285,300 L286,300 L286,301 L287,301 L287,302 L288,302 L288,303 L289,303 L289,304 L290,304 L290,305 L291,305 L291,307 L292,307 L292,308 L293,308 L293,309 L294,309 L294,310 L295,310 L295,311 L296,311 L296,313 L297,313 L297,314 L298,314 L298,315 L299,315 L299,316 L300,316 L300,318 L301,318 L301,319 L302,319 L302,320 L303,320 L303,321 L304,321 L304,322 L305,322 L305,324 L306,324 L306,325 L307,325 L307,326 L308,326 L308,327 L309,327 L309,329 L310,329 L310,330 L311,330 L311,331 L312,331 L312,332 L313,332 L313,333 L314,333 L314,334 L315,334 L315,336 L316,336 L316,337 L317,337 L317,338 L318,338 L318,340 L319,340 L319,341 L320,341 L320,342 L321,342 L321,343 L322,343 L322,344 L323,344 L323,346 L324,346 L324,347 L325,347 L325,348 L326,348 L326,349 L327,349 L327,351 L328,351 L328,352 L329,352 L329,353 L330,353 L330,354 L331,354 L331,355 L332,355 L332,357 L333,357 L333,358 L334,358 L334,359 L335,359 L335,360 L336,360 L336,362 L337,362 L337,363 L338,363 L338,364 L339,364 L339,365 L340,365 L340,367 L341,367 L341,368 L342,368 L342,369 L343,369 L343,370 L344,370 L344,371 L345,371 L345,373 L346,373 L346,374 L347,374 L347,375 L348,375 L348,376 L349,376 L349,378 L350,378 L350,379 L351,379 L351,380 L352,380 L352,381 L353,381 L353,382 L354,382 L354,383 L355,383 L355,385 L356,385 L356,386 L357,386 L357,387 L358,387 L358,388 L359,388 L359,390 L360,390 L360,391 L361,391 L361,392 L362,392 L362,393 L363,393 L363,395 L364,395 L364,396 L365,396 L365,399 L359,399 L359,398 L355,398 L355,399 L352,399 L352,398 L351,398 L351,399 L350,399 L350,398 L285,398 L285,399 L281,399 L281,398 L279,398 L279,397 L278,397 L278,395 L277,395 L277,394 L276,394 L276,393 L275,393 L275,391 L274,391 L274,390 L273,390 L273,389 L272,389 L272,388 L271,388 L271,387 L270,387 L270,385 L269,385 L269,384 L268,384 L268,383 L267,383 L267,381 L266,381 L266,380 L265,380 L265,379 L264,379 L264,377 L263,377 L263,376 L262,376 L262,375 L261,375 L261,374 L260,374 L260,373 L259,373 L259,371 L258,371 L258,370 L257,370 L257,368 L256,368 L256,367 L255,367 L255,366 L254,366 L254,365 L253,365 L253,363 L252,363 L252,362 L251,362 L251,361 L250,361 L250,359 L249,359 L249,358 L248,358 L248,357 L247,357 L247,356 L246,356 L246,354 L245,354 L245,353 L244,353 L244,352 L243,352 L243,350 L242,350 L242,349 L241,349 L241,348 L240,348 L240,347 L239,347 L239,345 L238,345 L238,344 L237,344 L237,343 L236,343 L236,342 L235,342 L235,340 L234,340 L234,339 L233,339 L233,337 L232,337 L232,336 L231,336 L231,335 L230,335 L230,334 L229,334 L229,333 L228,333 L228,332 L227,332 L227,330 L226,330 L226,329 L225,329 L225,328 L224,328 L224,326 L223,326 L223,325 L222,325 L222,324 L221,324 L221,323 L220,323 L220,321 L219,321 L219,320 L218,320 L218,319 L217,319 L217,317 L216,317 L216,316 L215,316 L215,315 L214,315 L214,314 L213,314 L213,313 L212,313 L212,311 L211,311 L211,310 L210,310 L210,309 L209,309 L209,307 L208,307 L208,305 L209,305 L209,299 L210,299 L210,282 L211,282 L211,281 L210,281 L210,268 L209,268 L209,262 L208,262 L208,259 L207,259 L207,257 L206,257 L206,254 L205,254 L205,251 L204,251 L204,249 L203,249 L203,247 L202,247 L202,245 L201,245 L201,243 L200,243 L200,241 L199,241 L199,239 L198,239 L198,237 L197,237 L197,235 L196,235 L196,233 L195,233 L195,230 L194,230 L194,225 L193,225 L193,216 L194,216 L194,212 L195,212 L195,210 L196,210 L196,209 L197,209 L197,208 L198,208 L198,207 L200,207 L200,206 L202,206 L202,205 L212,205 L212,204 L220,204 L220,203 L224,203 L224,202 L228,202 L228,201 L231,201 L231,200 L233,200 L233,199 L234,199 L234,198 L236,198 L236,197 L237,197 L237,196 L238,196 L238,195 L239,195 L239,194 L240,194 L240,193 L241,193 L241,191 L242,191 L242,190 L243,190 L243,188 L244,188 L244,186 L245,186 L245,183 L246,183 L246,180 L247,180 L247,177 L248,177 L248,171 L249,171 L249,161 L248,161 L248,159 L247,159 L247,158 L245,158 L245,157 L241,157 L241,156 L237,156 L237,155 L233,155 L233,154 L229,154 L229,153 L225,153 L225,152 L219,152 L219,151 L215,151 L215,150 L211,150 L211,149 L207,149 L207,148 L204,148 L204,147 L202,147 L202,146 L201,146 L201,145 L200,145 L200,143 L199,143 L199,141 L198,141 L198,140 L197,140 L197,138 L196,138 L196,136 L195,136 L195,135 L194,135 L194,134 L193,134 L193,133 L192,133 L192,132 L191,132 L191,131 L190,131 L190,130 L188,130 L188,129 L187,129 L187,128 L185,128 L185,127 L182,127 L182,126 L179,126 L179,125 L174,125 L174,124 L154,124 L154,115 L153,115 L153,103 L152,103 L152,99 L151,99 L151,97 L150,97 L150,96 L148,96 L148,97 L147,97 L147,98 L146,98 L146,100 L145,100 L145,102 L144,102 L144,103 L143,103 L143,105 L142,105 L142,106 L141,106 L141,108 L140,108 L140,110 L139,110 L139,112 L138,112 L138,114 L137,114 L137,117 L136,117 L136,119 L135,119 L135,121 L134,121 L134,124 L133,124 L133,127 L132,127 L132,130 L131,130 L131,134 L130,134 L130,138 L129,138 L129,144 L128,144 L128,147 L127,147 L127,149 L126,149 L126,150 L125,150 L125,152 L124,152 L124,153 L123,153 L123,155 L122,155 L122,157 L121,157 L121,158 L120,158 L120,160 L119,160 L119,162 L118,162 L118,163 L117,163 L117,165 L116,165 L116,167 L115,167 L115,169 L114,169 L114,171 L113,171 L113,173 L112,173 L112,175 L111,175 L111,177 L110,177 L110,179 L109,179 L109,182 L108,182 L108,184 L107,184 L107,187 L106,187 L106,189 L105,189 L105,193 L104,193 L104,195 L103,195 L103,199 L102,199 L102,202 L101,202 L101,206 L100,206 L100,211 L99,211 L99,217 L98,217 L98,227 L97,227 L97,274 L98,274 L98,272 L99,272 L99,270 L100,270 L100,267 L101,267 L101,265 L102,265 L102,262 L103,262 L103,260 L104,260 L104,257 L105,257 L105,254 L106,254 L106,252 L107,252 L107,249 L108,249 L108,247 L109,247 L109,245 L110,245 L110,242 L111,242 L111,240 L112,240 L112,239 L113,239 L113,237 L114,237 L114,236 L115,236 L115,234 L116,234 L116,233 L117,233 L117,231 L118,231 L118,230 L119,230 L119,229 L120,229 L120,228 L121,228 L121,227 L122,227 L122,226 L123,226 L123,225 L124,225 L124,224 L125,224 L125,223 L126,223 L126,222 L128,222 L128,221 L129,221 L129,220 L131,220 L131,219 L133,219 L133,218 L135,218 L135,217 L136,217 L136,216 L137,216 L137,215 L138,215 L138,213 L139,213 L139,212 L140,212 L140,211 L141,211 L141,209 L142,209 L142,208 L143,208 L143,207 L144,207 L144,206 L145,206 L145,205 L146,205 L146,204 L147,204 L147,203 L148,203 L148,202 L149,202 L149,201 L150,201 L150,200 L151,200 L151,199 L152,199 L152,198 L154,198 L154,197 L155,197 L155,196 L157,196 L157,195 L159,195 L159,194 L163,194 L163,195 L164,195 L164,214 L163,214 L163,220 L164,220 L164,221 L167,221 L167,222 L169,222 L169,223 L171,223 L171,224 L173,224 L173,225 L174,225 L174,226 L175,226 L175,227 L177,227 L177,228 L178,228 L178,229 L179,229 L179,230 L180,230 L180,231 L181,231 L181,233 L182,233 L182,234 L183,234 L183,236 L184,236 L184,238 L185,238 L185,243 L186,243 L186,249 L187,249 L187,251 L188,251 L188,252 L189,252 L189,254 L190,254 L190,255 L191,255 L191,256 L192,256 L192,257 L193,257 L193,258 L195,258 L195,260 L196,260 L196,261 L197,261 L197,268 L196,268 L196,271 L195,271 L195,273 L194,273 L194,275 L193,275 L193,277 L192,277 L192,279 L191,279 L191,280 L190,280 L190,282 L189,282 L189,283 L188,283 L188,284 L186,284 L186,285 L185,285 L185,286 L183,286 L183,287 L180,287 L180,288 L175,288 L175,289 L167,289 L167,290 L165,290 L165,291 L164,291 L164,292 L162,292 L162,294 L161,294 L161,309 L162,309 L162,313 L163,313 L163,317 L164,317 L164,323 L165,323 L165,336 L164,336 L164,342 L163,342 L163,346 L162,346 L162,349 L161,349 L161,352 L160,352 L160,354 L159,354 L159,356 L158,356 L158,357 L157,357 L157,359 L156,359 L156,361 L155,361 L155,363 L154,363 L154,364 L153,364 L153,366 L152,366 L152,368 L151,368 L151,369 L150,369 L150,371 L149,371 L149,373 L148,373 L148,374 L147,374 L147,376 L146,376 L146,378 L145,378 L145,380 L144,380 L144,382 L143,382 L143,384 L142,384 L142,386 L141,386 L141,388 L140,388 L140,390 L139,390 L139,392 L138,392 L138,394 L137,394 L137,397 L136,397 L136,398 L134,398 L134,399 L133,399 L133,398 L61,398 L61,399 L55,399 L55,398 L54,398 L54,55 L55,55Z" fill="#246bfd" fill-rule="evenodd"/></svg>
